<svg width="1728" height="1117" viewBox="0 0 1728 1117" fill="none" xmlns="http://www.w3.org/2000/svg">
<g clip-path="url(#clip0_1_289)">
<mask id="mask0_1_289" style="mask-type:luminance" maskUnits="userSpaceOnUse" x="0" y="0" width="1728" height="1117">
<path d="M1728 0H0V1117H1728V0Z" fill="white"/>
</mask>
<g mask="url(#mask0_1_289)">
<path d="M1728 -6.10352e-05H0V1117H1728V-6.10352e-05Z" fill="#FFFFFE"/>
<path d="M1723.68 199.001L-272 733.742L-27.4478 1646.42L1968.23 1111.68L1723.68 199.001Z" fill="#37474F"/>
<path d="M1549.68 -678L-581 -107.087L-348.292 761.39L1782.39 190.477L1549.68 -678Z" fill="#263238"/>
<path opacity="0.2" d="M876.606 590.692V569.736L846.344 552.262V531.306L816.081 513.814V492.875L785.836 475.4L655.074 546.725L689.038 566.238V587.194L719.3 604.651V625.624L749.562 643.082V664.055L882.125 855.631C1013.4 833.469 1113.61 766.627 1155.89 680.239C1160.79 670.254 1165.14 660.194 1168.95 650.062L876.606 590.692Z" fill="#165118"/>
<path opacity="0.15" d="M690.21 182.153C601.733 233.099 530 369.636 530 487.186C530 557.034 555.337 604.465 594.532 620.768L610.716 611.427L769.839 519.571L786.43 509.993C825.337 448.772 850.487 372.438 850.487 302.811C850.419 185.294 778.704 131.257 690.21 182.153Z" fill="#165118"/>
<path opacity="0.15" d="M690.21 216.151C615.862 258.946 555.592 373.677 555.592 472.462C555.592 571.248 615.862 616.658 690.21 573.897C764.558 531.136 824.844 416.353 824.844 317.568C824.844 218.783 764.575 173.373 690.21 216.151Z" fill="#165118"/>
<path opacity="0.15" d="M690.21 240.113C626.051 277.168 574.035 376.547 574.035 462.086C574.035 547.625 626.051 586.973 690.21 549.935C754.368 512.897 806.384 413.5 806.384 327.944C806.384 242.388 754.385 203.041 690.21 240.113Z" fill="#165118"/>
<path d="M621.703 466.145C621.703 392.035 666.774 305.936 722.357 273.822C746.862 259.693 769.295 258.386 786.736 267.692L764.133 254.615C746.471 244.426 723.376 245.275 698.174 259.846C642.558 291.959 597.504 378.059 597.504 452.169C597.504 492.739 611.005 521.303 632.351 533.598C636.002 535.687 649.571 543.55 655.107 546.742C634.542 533.989 621.703 505.798 621.703 466.145Z" fill="#165118"/>
<path opacity="0.3" d="M621.703 466.145C621.703 392.035 666.774 305.936 722.357 273.822C746.862 259.693 769.295 258.386 786.736 267.692L764.133 254.615C746.471 244.426 723.376 245.275 698.174 259.846C642.558 291.959 597.504 378.059 597.504 452.169C597.504 492.739 611.005 521.303 632.351 533.598C636.002 535.687 649.571 543.55 655.107 546.742C634.542 533.989 621.703 505.798 621.703 466.145Z" fill="white"/>
<path d="M761.908 289.361C770.688 301.079 775.392 319.725 774.339 343.976C771.809 403.413 735.654 474.127 693.606 501.791C680.835 510.197 668.965 513.678 658.742 512.744C671.512 529.726 692.91 532.155 717.806 515.767C759.87 488.103 796.025 417.44 798.556 357.935C800.288 316.532 785.31 291.45 761.908 289.361Z" fill="#165118"/>
<path opacity="0.15" d="M761.908 289.361C770.688 301.079 775.392 319.725 774.339 343.976C771.809 403.413 735.654 474.127 693.606 501.791C680.835 510.197 668.965 513.678 658.742 512.744C671.512 529.726 692.91 532.155 717.806 515.767C759.87 488.103 796.025 417.44 798.556 357.935C800.288 316.532 785.31 291.45 761.908 289.361Z" fill="black"/>
<path d="M647.347 307.566L671.546 321.542L673.482 318.944L649.283 304.934C648.62 305.834 647.992 306.632 647.347 307.566Z" fill="#165118"/>
<path d="M636.24 388.503L611.956 374.56C611.616 375.494 611.293 376.462 610.971 377.413L635.17 391.39C635.51 390.405 635.816 389.437 636.24 388.503Z" fill="#165118"/>
<path d="M746.624 248.451L770.841 262.478C771.826 262.648 772.811 262.818 773.778 263.022L749.562 249.045C748.594 248.791 747.609 248.604 746.624 248.451Z" fill="#165118"/>
<path d="M625.117 429.549C625.304 428.496 625.508 427.426 625.711 426.373L601.512 412.397C601.291 413.449 601.087 414.502 600.9 415.572L625.117 429.549Z" fill="#165118"/>
<path d="M671.139 280.394L695.338 294.371C696.17 293.573 697.036 292.774 697.852 292.01L673.601 278.034C672.803 278.798 671.903 279.596 671.139 280.394Z" fill="#165118"/>
<path d="M625.236 499.413C625.015 498.479 624.811 497.528 624.607 496.577L624.421 496.153L600.34 482.244C600.561 483.331 600.781 484.401 601.036 485.454L625.236 499.413Z" fill="#165118"/>
<path d="M725.515 249.079C724.497 249.283 723.444 249.555 722.408 249.81L746.624 263.786C747.677 263.514 748.73 263.276 749.766 263.073L725.515 249.079Z" fill="#165118"/>
<path d="M723.868 273.007L699.669 259.082C699.159 259.37 698.667 259.608 698.174 259.897L696.697 260.797L720.896 274.773L722.357 273.873L723.868 273.007Z" fill="#165118"/>
<path d="M626.832 340.596L651.032 354.572L652.458 351.923L628.259 337.947C627.749 338.796 627.291 339.679 626.832 340.596Z" fill="#165118"/>
<path d="M635.51 526.075C634.967 525.141 634.457 524.207 633.931 523.239L609.748 509.28C610.258 510.248 610.801 511.182 611.344 512.116L635.51 526.075Z" fill="#165118"/>
<path d="M597.504 452.441L621.704 466.434V466.145C621.704 465.109 621.704 464.039 621.704 462.986L597.487 449.01C597.487 450.063 597.487 451.133 597.487 452.169L597.504 452.441Z" fill="#165118"/>
<path d="M722.357 273.822C666.774 305.935 621.704 392.035 621.704 466.145C621.704 540.255 666.774 574.338 722.357 542.242C777.939 510.146 823.044 424.046 823.044 349.919C823.044 275.792 777.956 241.726 722.357 273.822ZM798.505 357.935C795.974 417.372 759.819 488.086 717.755 515.75C675.69 543.414 643.679 517.618 646.209 458.13C648.739 398.641 684.928 327.978 726.959 300.314C768.99 272.65 801.052 298.446 798.505 357.935Z" fill="#165118"/>
<g opacity="0.15">
<path d="M701.757 322.68C702.572 321.78 703.37 320.863 704.202 319.98L697.834 292.01C696.985 292.774 696.136 293.556 695.321 294.354L701.757 322.68Z" fill="black"/>
<path d="M720.879 274.705V304.696C721.864 303.932 722.849 303.184 723.851 302.471V272.99L722.356 273.822L720.879 274.705Z" fill="black"/>
<path d="M741.343 292.774C742.43 292.35 743.516 291.959 744.586 291.62L749.681 263.056C748.645 263.259 747.592 263.497 746.539 263.752L741.343 292.774Z" fill="black"/>
<path d="M659.285 395.975L660.355 393.156L636.24 388.486C635.901 389.437 635.561 390.388 635.238 391.339L659.285 395.975Z" fill="black"/>
<path d="M670.714 369.466L672.072 366.749L652.441 351.906L651.031 354.572L670.714 369.466Z" fill="black"/>
<path d="M818.917 314.325L797.57 334.347C797.74 335.536 797.893 336.741 798.029 337.998L819.783 317.619C819.46 316.533 819.206 315.412 818.917 314.325Z" fill="black"/>
<path d="M646.939 448.433L621.737 462.969C621.737 464.039 621.737 465.092 621.737 466.145V466.434L646.633 452.067C646.684 450.861 646.82 449.638 646.939 448.433Z" fill="black"/>
<path d="M651.014 423.809C651.269 422.739 651.541 421.669 651.796 420.582L625.694 426.339C625.49 427.392 625.286 428.462 625.1 429.515L651.014 423.809Z" fill="black"/>
<path d="M761.398 289.344C762.434 289.429 763.436 289.548 764.421 289.718L773.795 262.937C772.81 262.733 771.825 262.546 770.824 262.376L761.398 289.344Z" fill="black"/>
<path d="M791.015 311.625C791.491 312.627 791.949 313.679 792.391 314.749L809.882 291.195C809.356 290.244 808.795 289.327 808.184 288.427L791.015 311.625Z" fill="black"/>
<path d="M778.652 295.848C779.451 296.46 780.232 297.105 780.996 297.801L794.174 272.566C793.376 271.937 792.578 271.343 791.746 270.766L778.652 295.848Z" fill="black"/>
<path d="M684.928 344.74L686.762 341.972L673.465 318.927L671.529 321.542L684.928 344.74Z" fill="black"/>
<path d="M743.482 492.807C742.684 493.741 741.784 494.641 741.054 495.524L747.422 523.579C748.271 522.815 749.12 521.982 749.935 521.184L743.482 492.807Z" fill="black"/>
<path d="M775.052 444.561C774.61 445.478 774.152 446.378 773.693 447.278L793.376 462.154L794.751 459.454L775.052 444.561Z" fill="black"/>
<path d="M760.685 470L758.851 472.785L772.182 495.881C772.827 495.015 773.49 494.183 774.118 493.283L760.685 470Z" fill="black"/>
<path d="M786.396 417.406C786.057 418.357 785.734 419.308 785.377 420.242L809.492 424.896C809.832 423.945 810.154 422.994 810.477 422.043L786.396 417.406Z" fill="black"/>
<path d="M794.361 389.233C794.14 390.303 793.919 391.373 793.665 392.426L819.647 386.737C819.834 385.667 820.004 384.614 820.191 383.561L794.361 389.233Z" fill="black"/>
<path d="M823.043 346.795L798.317 360.975C798.317 362.163 798.165 363.352 798.08 364.558L823.043 350.208V349.919C823.043 348.866 823.043 347.83 823.043 346.795Z" fill="black"/>
<path d="M723.851 541.342V511.386C722.866 512.15 721.864 512.897 720.879 513.61V543.091L722.356 542.242C722.849 541.953 723.358 541.631 723.851 541.342Z" fill="black"/>
<path d="M652.9 502.674C652.441 501.638 652 500.568 651.575 499.447L633.931 523.222C634.44 524.19 634.984 525.141 635.527 526.058L652.9 502.674Z" fill="black"/>
<path d="M665.008 519.401C664.227 518.756 663.463 518.077 662.715 517.346L649.469 542.684C650.25 543.329 651.049 543.94 651.864 544.535L665.008 519.401Z" fill="black"/>
<path d="M702.81 523.545C701.723 523.952 700.653 524.309 699.583 524.649L694.489 553.128C695.542 552.924 696.595 552.703 697.647 552.449L702.81 523.545Z" fill="black"/>
<path d="M682.347 526.652C681.328 526.551 680.343 526.398 679.358 526.211L670.085 552.873C671.07 553.111 672.055 553.297 673.04 553.467L682.347 526.652Z" fill="black"/>
<path d="M646.888 479.187C646.752 477.965 646.633 476.708 646.531 475.434L624.454 496.034C624.692 497.171 624.93 498.292 625.184 499.43L646.888 479.187Z" fill="black"/>
</g>
<path d="M749.528 664.072L634.491 597.655V534.77L658.708 548.746L689.004 566.255V587.211L719.266 604.668V625.641L749.528 643.099V664.072Z" fill="#263238"/>
<path d="M658.742 548.78L785.836 475.4L816.081 492.875L689.004 566.255L658.742 548.78Z" fill="#455A64"/>
<path d="M689.004 566.255V587.211L816.081 513.831V492.875L689.004 566.255Z" fill="#37474F"/>
<path d="M689.004 587.211L816.081 513.831L846.344 531.306L719.266 604.669L689.004 587.211Z" fill="#455A64"/>
<path d="M719.266 604.669V625.642L846.344 552.262V531.306L719.266 604.669Z" fill="#37474F"/>
<path d="M719.266 625.642L846.344 552.262L876.606 569.736L749.528 643.099L719.266 625.642Z" fill="#455A64"/>
<path d="M749.528 643.099V664.072L876.606 590.692V569.736L749.528 643.099Z" fill="#37474F"/>
<path d="M785.921 350.785C783.391 410.223 747.219 480.936 705.171 508.617C689.547 518.892 675.316 521.796 663.7 518.314C651.813 507.463 645.02 486.676 646.209 458.163C648.756 398.726 684.928 328.012 726.959 300.348C742.599 290.057 756.864 287.17 768.463 290.669C780.419 301.537 787.144 322.255 785.921 350.785Z" fill="#165118"/>
<path opacity="0.9" d="M785.921 350.785C783.391 410.223 747.219 480.936 705.171 508.617C689.547 518.892 675.316 521.796 663.7 518.314C651.813 507.463 645.02 486.676 646.209 458.163C648.756 398.726 684.928 328.012 726.959 300.348C742.599 290.057 756.864 287.17 768.463 290.669C780.419 301.537 787.144 322.255 785.921 350.785Z" fill="white"/>
<path opacity="0.1" d="M704.984 478.151C691.857 479.671 679.71 485.847 670.748 495.558C665.906 500.755 661.958 506.717 659.064 513.203C660.461 515.03 662.012 516.734 663.7 518.297C666.2 519.028 668.776 519.472 671.376 519.622C672.055 517.924 672.565 516.141 673.159 514.425C676.096 506.439 681.33 499.499 688.201 494.48C695.073 489.461 703.275 486.586 711.777 486.218C717.602 486.065 723.375 487.118 729.166 487.577C731.459 485.046 733.701 482.482 735.959 479.697C725.702 479.17 715.122 477.133 704.984 478.151ZM702.47 391.186C714.358 392.731 727.332 393.394 737.725 387.314C749.494 380.419 755.081 366.749 760.753 354.369C766.035 342.872 773.252 330.729 784.783 326.28C782.388 310.198 776.648 298.09 768.446 290.618C762.852 289.008 756.954 288.757 751.243 289.887C745.49 296.475 741.298 304.277 738.982 312.711C736.265 322.221 735.314 332.326 730.949 341.173C726.505 350.069 718.961 357.033 709.739 360.754C702.47 363.641 694.574 364.337 686.847 365.526C681.457 366.322 676.129 367.491 670.901 369.024C666.867 377.036 663.272 385.262 660.134 393.665C662.219 392.599 664.389 391.707 666.621 390.999C678.152 387.45 690.583 389.657 702.47 391.186ZM714.63 331.748C718.434 325.176 719.724 317.517 721.813 310.198C722.56 307.464 723.511 304.798 724.394 302.132C721.677 304.045 718.983 306.128 716.311 308.381C712.473 317.704 708.737 327.061 701.655 334.092C698.046 337.628 693.736 340.37 689.004 342.141C688.109 342.441 687.188 342.651 686.252 342.77C684.52 345.317 682.822 347.921 681.158 350.582C684.989 350.274 688.786 349.626 692.502 348.646C701.703 345.885 709.578 339.858 714.647 331.697L714.63 331.748ZM785.955 342.057C782.633 343.778 779.625 346.045 777.056 348.764C770.739 355.693 767.342 364.677 763.47 373.236C758.07 385.429 751.022 397.843 739.288 404.16C731.476 408.355 722.306 409.408 713.526 409.645C696.798 410.104 679.816 407.947 663.462 411.531C659.938 412.3 656.492 413.398 653.171 414.808C652.039 418.872 651.048 422.92 650.199 426.95C654.007 424.935 658.037 423.367 662.206 422.28C686.371 416.167 713.152 429.583 736.299 420.582C753.281 413.942 763.623 397.079 771.961 380.878C775.358 374.272 779.009 367.292 784.868 362.911C785.321 358.869 785.638 354.861 785.819 350.887C786.04 347.746 786.074 344.842 786.023 342.006L785.955 342.057ZM725.668 441.045C712.592 441.521 699.533 440.298 686.456 440.111C679.756 439.747 673.04 440.435 666.553 442.149C660.874 444.07 655.533 446.872 650.726 450.454C649.248 451.506 647.822 452.593 646.412 453.697C646.31 455.209 646.209 456.703 646.141 458.18C645.41 475.417 647.601 489.801 652.067 500.908C654.954 498.402 657.521 495.55 659.709 492.416C668.693 480.274 677.354 466.841 690.974 460.337C705.595 453.358 722.832 455.854 738.727 452.661C745.681 451.241 752.361 448.712 758.512 445.172C761.025 440.462 763.397 435.662 765.627 430.771C764.948 431.179 764.251 431.569 763.555 431.96C752.058 438.26 738.795 440.519 725.736 440.995L725.668 441.045Z" fill="#165118"/>
<path d="M864.032 324.895C864.032 330.669 862.945 335.798 855.881 337.037C863.115 337.343 863.625 342.132 864.032 348.823C864.27 342.183 864.898 337.343 871.454 337.037C864.695 335.916 864.032 330.669 864.032 324.895Z" fill="#165118"/>
<path d="M699.204 632.289C699.204 638.063 698.117 643.191 691.052 644.431C698.287 644.737 698.796 649.526 699.204 656.217C699.441 649.56 700.07 644.737 706.625 644.431C699.832 643.293 699.204 638.063 699.204 632.289Z" fill="#165118"/>
<path d="M646.1 454.384C646.1 456.914 645.625 459.139 642.534 459.682C645.693 459.818 645.931 461.941 646.1 464.777C646.202 461.873 646.474 459.682 649.344 459.682C646.372 459.19 646.1 456.914 646.1 454.384Z" fill="#165118"/>
<path d="M632.209 464.318C632.209 470.075 631.105 475.204 624.058 476.444C631.292 476.749 631.801 481.538 632.209 488.246C632.43 481.589 633.058 476.766 639.63 476.444C632.837 475.408 632.209 470.075 632.209 464.318Z" fill="#E0E0E0"/>
<path d="M625.586 435.381C625.586 438.353 625.025 440.968 621.408 441.613C625.11 441.766 625.382 444.246 625.586 447.659C625.705 444.263 626.027 441.766 629.407 441.613C625.908 441.036 625.586 438.353 625.586 435.381Z" fill="#E0E0E0"/>
<path d="M844.418 307.539C844.418 310.936 844.333 314.162 839.459 314.927C844.554 314.927 844.214 318.102 844.469 322.178C844.605 318.102 844.961 315.181 848.986 314.994C844.825 314.298 844.944 312.379 844.418 307.539Z" fill="#E0E0E0"/>
<path d="M886.771 464.709C886.415 471.077 885.905 473.828 880.148 474.593C886.007 474.915 886.5 478.804 886.839 484.221C887.026 478.804 887.502 474.864 892.851 474.593C887.349 473.71 887.213 471.162 886.771 464.709Z" fill="#E0E0E0"/>
<path d="M675.802 632.34C675.598 636.059 675.31 637.655 671.947 638.114C675.344 638.301 675.649 640.542 675.853 643.701C675.955 640.542 676.227 638.25 679.351 638.114C676.193 637.57 676.057 636.11 675.802 632.34Z" fill="#E0E0E0"/>
<path d="M874.748 318.985C874.748 321.04 874.748 323.01 871.742 323.469C874.867 323.469 874.629 325.388 874.782 327.85C874.867 325.388 875.071 323.621 877.499 323.502C874.986 323.078 875.054 321.923 874.748 318.985Z" fill="#E0E0E0"/>
<path d="M881.15 483.22C881.15 485.257 881.15 487.227 878.145 487.686C881.252 487.686 881.015 489.622 881.167 492.084C881.252 489.622 881.473 487.839 883.901 487.737C881.388 487.295 881.456 486.141 881.15 483.22Z" fill="#E0E0E0"/>
<path d="M691.477 624.239C691.477 626.277 691.477 628.247 688.471 628.706C691.595 628.706 691.358 630.625 691.511 633.087C691.595 630.625 691.816 628.859 694.245 628.74C691.765 628.332 691.833 627.16 691.477 624.239Z" fill="#E0E0E0"/>
<path d="M1118.62 579.532L1172.09 548.658L1252.82 595.257L1291.56 572.892L1210.85 526.293L1237.07 511.145L1194.61 486.605L1168.39 501.753L1121.59 474.769L1082.83 497.151L1129.59 524.204L1029.88 581.671L1061.08 599.672L1312.72 667.227L1317.61 664.408C1320.01 654.763 1322 644.919 1323.57 634.876L1118.62 579.532Z" fill="#263238"/>
<path d="M1123.64 342.648L1121.64 343.803V278.557L1097.42 264.581L1067.46 281.869L1092.17 188.976L1067.97 175L1026.32 199.047L959 450.756V486.843L983.2 500.819L1058.75 457.175V483.175L1082.97 497.151L1121.59 474.769V420.834L1147.79 405.702V356.624L1123.64 342.648ZM1058.75 380.161L1038.26 392.049L1058.75 314.916V380.161Z" fill="#165118"/>
<path opacity="0.3" d="M1123.64 342.648L1121.64 343.803V278.557L1097.42 264.581L1067.46 281.869L1092.17 188.976L1067.97 175L1026.32 199.047L959 450.756V486.843L983.2 500.819L1058.75 457.175V483.175L1082.97 497.151L1121.59 474.769V420.834L1147.79 405.702V356.624L1123.64 342.648ZM1058.75 380.161L1038.26 392.049L1058.75 314.916V380.161Z" fill="black"/>
<path d="M1121.62 371.755V278.557L1082.88 300.923V394.138L1029.39 425.011L1092.17 188.976L1050.52 213.023L983.2 464.732V500.752L1082.88 443.216V497.151L1121.62 474.769V420.834L1147.84 405.702V356.624L1121.62 371.755Z" fill="#165118"/>
<path opacity="0.3" d="M1121.62 371.755V278.557L1082.88 300.923V394.138L1029.39 425.011L1092.17 188.976L1050.52 213.023L983.2 464.732V500.752L1082.88 443.216V497.151L1121.62 474.769V420.834L1147.84 405.702V356.624L1121.62 371.755Z" fill="white"/>
<path d="M1092.17 188.976L1067.97 175L1026.32 199.047L1050.52 213.023L1092.17 188.976Z" fill="#165118"/>
<path opacity="0.5" d="M1092.17 188.976L1067.97 175L1026.32 199.047L1050.52 213.023L1092.17 188.976Z" fill="white"/>
<path d="M1097.42 264.581L1121.62 278.557L1082.88 300.923L1065.12 290.665L1067.47 281.869L1097.42 264.581Z" fill="#165118"/>
<path opacity="0.5" d="M1097.42 264.581L1121.62 278.557L1082.88 300.923L1065.12 290.665L1067.47 281.869L1097.42 264.581Z" fill="white"/>
<path d="M1082.88 394.138L1058.67 380.161L1038.17 391.998L1029.39 425.011L1082.88 394.138Z" fill="#165118"/>
<path opacity="0.5" d="M1082.88 394.138L1058.67 380.161L1038.17 391.998L1029.39 425.011L1082.88 394.138Z" fill="white"/>
<path d="M1147.84 356.624L1123.64 342.648L1121.62 343.803V371.755L1147.84 356.624Z" fill="#165118"/>
<path opacity="0.5" d="M1121.62 371.755L1147.84 356.624L1123.64 342.648L1121.62 343.803V371.755Z" fill="white"/>
<path d="M983.2 464.732L959 450.756L1026.32 199.047L1050.52 213.023L983.2 464.732Z" fill="#165118"/>
<path opacity="0.15" d="M983.2 464.732L959 450.756L1026.32 199.047L1050.52 213.023L983.2 464.732Z" fill="black"/>
<path d="M683.066 796.162L640.559 771.622L614.356 786.753L567.638 759.786L528.885 782.151L575.603 809.119L475.917 866.671L507.114 884.689L758.772 952.244L800.429 928.198L564.615 864.549L618.109 833.658L698.825 880.274L737.578 857.892L656.845 811.293L683.066 796.162Z" fill="#263238"/>
<path d="M569.642 627.648L567.638 628.819V563.506L543.421 549.53L513.465 566.902L538.174 474.01L513.974 460.034L472.317 484.047L405 735.773V771.792L429.267 785.768L504.753 742.192V768.175L528.953 782.151L567.706 759.786V705.833L593.909 690.702V641.624L569.642 627.648ZM504.685 665.161L484.188 677.049L504.685 599.984V665.161Z" fill="#165118"/>
<path opacity="0.3" d="M569.642 627.648L567.638 628.819V563.506L543.421 549.53L513.465 566.902L538.174 474.01L513.974 460.034L472.317 484.047L405 735.773V771.792L429.267 785.768L504.753 742.192V768.175L528.953 782.151L567.706 759.786V705.833L593.909 690.702V641.624L569.642 627.648ZM504.685 665.161L484.188 677.049L504.685 599.984V665.161Z" fill="black"/>
<path d="M567.638 656.772V563.557L528.884 585.923V679.138L475.391 710.011L538.191 473.976L496.533 498.023L429.199 749.732V785.768L528.884 728.216V782.151L567.638 759.786V705.833L593.841 690.702V641.624L567.638 656.772Z" fill="#165118"/>
<path opacity="0.3" d="M567.638 656.772V563.557L528.884 585.923V679.138L475.391 710.011L538.191 473.976L496.533 498.023L429.199 749.732V785.768L528.884 728.216V782.151L567.638 759.786V705.833L593.841 690.702V641.624L567.638 656.772Z" fill="white"/>
<path d="M538.191 473.976L513.975 460L472.317 484.047L496.534 498.023L538.191 473.976Z" fill="#165118"/>
<path opacity="0.5" d="M538.191 473.976L513.975 460L472.317 484.047L496.534 498.023L538.191 473.976Z" fill="white"/>
<path d="M543.422 549.581L567.638 563.557L528.885 585.923L511.122 575.682L513.465 566.886L543.422 549.581Z" fill="#165118"/>
<path opacity="0.5" d="M543.422 549.581L567.638 563.557L528.885 585.923L511.122 575.682L513.465 566.886L543.422 549.581Z" fill="white"/>
<path d="M528.885 679.137L504.685 665.161L484.188 676.998L475.391 710.011L528.885 679.137Z" fill="#165118"/>
<path opacity="0.5" d="M528.885 679.137L504.685 665.161L484.188 676.998L475.391 710.011L528.885 679.137Z" fill="white"/>
<path d="M593.842 641.624L569.642 627.648L567.638 628.819V656.772L593.842 641.624Z" fill="#165118"/>
<path opacity="0.5" d="M567.638 656.772L593.842 641.624L569.642 627.648L567.638 628.819V656.772Z" fill="white"/>
<path d="M429.2 749.732L405 735.773L472.317 484.047L496.534 498.023L429.2 749.732Z" fill="#165118"/>
<path opacity="0.15" d="M429.2 749.732L405 735.773L472.317 484.047L496.534 498.023L429.2 749.732Z" fill="black"/>
<path d="M978.068 758.364C971.295 755.274 964.129 753.131 956.772 751.996C952.271 751.25 947.674 751.29 943.186 752.115C939.991 752.768 936.896 753.842 933.982 755.308C923.997 760.266 922.553 765.786 922.231 770.456C921.908 775.126 924.489 781.375 932.742 787.149L1074.39 886.376C1100.17 872.64 1124.13 855.73 1145.72 836.041C1084.17 807.443 983.74 760.793 978.068 758.364Z" fill="#263238"/>
<path d="M1023.39 549.535C1032.09 551.233 1035.48 551.828 1039.64 559.028C1043.81 566.228 1050.87 592.992 1052.81 598.546C1054.74 604.099 1055.32 606.12 1054.5 612.301C1053.67 618.754 1049.87 630.217 1048.27 636.501C1047.52 639.405 1047.03 642.241 1046.49 645.212C1045.74 648.254 1044.77 651.239 1043.6 654.145C1043.1 655.562 1042.23 656.818 1041.07 657.779C1040.36 658.408 1039.37 658.476 1038.69 659.053C1038.01 659.63 1037.83 660.649 1036.88 661.125C1035.93 661.6 1034.6 661.329 1033.67 661.872C1032.75 662.547 1031.79 663.171 1030.8 663.74C1029.89 664.005 1029.05 664.489 1028.37 665.15C1027.76 665.812 1027.18 667.306 1026.08 667.187C1024.97 667.068 1024.65 665.88 1024.6 664.861C1024.64 662.861 1025.32 660.927 1026.53 659.342C1027.62 657.576 1028.8 655.875 1030.08 654.247C1031.33 652.737 1032.22 650.967 1032.7 649.067C1033.09 647.794 1032.97 646.18 1031.32 646.911C1029.4 647.794 1027.37 649.628 1025.06 649.22C1023.46 648.949 1023.36 647.692 1024.29 646.639C1025.83 644.904 1027.24 643.059 1028.5 641.12C1029.8 639.133 1030.87 637.044 1032.21 635.108C1032.93 634.102 1033.72 633.143 1034.57 632.238C1036.91 629.691 1036.81 626.209 1037.08 622.966C1037.45 618.466 1037.78 606.918 1037.78 606.918L1027.25 580.986L1023.39 549.535Z" fill="#FFBDA7"/>
<path d="M1037.1 622.966C1037.2 617.616 1037.42 612.267 1037.62 606.918C1034.23 598.664 1030.59 589.579 1027.27 580.986C1030.93 589.579 1034.5 598.212 1037.96 606.884C1037.69 612.25 1037.45 617.616 1037.1 622.966Z" fill="white"/>
<path d="M964.686 750.926C967.674 749.873 969.899 749.771 969.865 751.249C969.46 753.07 968.815 754.829 967.946 756.479L965.569 759.757L964.431 762.984C964.431 762.984 963.038 764.682 962.953 764.852C962.868 765.021 962.41 758.823 962.41 758.823C962.41 758.823 960.729 751.69 964.686 750.926Z" fill="#263238"/>
<path d="M996.782 624.851C996.782 624.851 989.989 632.917 985.964 648.031C982.251 662.078 979.415 676.342 977.473 690.741C976.505 697.178 974.943 705.295 972.633 717.913C970.85 727.627 965.246 757.413 965.246 757.413C965.246 757.413 968.473 762.78 972.379 764.41C977.983 766.754 983.383 765.684 984.096 760.674C984.096 760.674 987.798 754.764 993.419 739.514C996.122 732.513 998.279 725.314 999.873 717.981C1000.43 713.378 1000.59 708.737 1000.37 704.106L1022.92 664.895C1025.41 660.599 1028.4 656.609 1031.82 653.007C1033.93 650.845 1035.59 648.281 1036.69 645.467C1040.43 635.278 1034.99 621.573 1034.99 621.573L996.782 624.851Z" fill="#263238"/>
<path d="M977.558 690.725C973.924 713.056 969.763 735.303 965.331 757.481C969.237 735.201 973.415 712.971 977.558 690.725Z" fill="white"/>
<path d="M968.761 774.65L967.556 774.413C967.641 773.954 976.675 727.457 982.992 707.928C989.31 688.398 1005.87 649.611 1006.04 649.22L1007.17 649.713C1007.01 650.086 990.482 688.857 984.181 708.318C977.881 727.78 968.863 774.192 968.761 774.65Z" fill="black"/>
<path d="M1026.47 637.91H989.429C988.074 641.199 986.939 644.575 986.032 648.014C982.608 660.947 979.971 674.076 978.136 687.328C979.036 693.391 980.055 699.623 980.989 703.903C983.485 715.213 985.047 723.194 987.017 727.864C988.919 731.812 991.164 735.586 993.725 739.141C996.363 732.282 998.469 725.23 1000.03 718.049C1000.58 713.446 1000.75 708.805 1000.52 704.174L1022.6 665.88L1024.17 659.851C1029.66 650.732 1029.03 643.888 1026.47 637.91Z" fill="black"/>
<path d="M934.322 765.989C933.659 765.684 932.844 768.282 932.776 769.216C932.708 770.15 934.475 773.954 939.111 776.756C943.747 779.558 951.711 781.121 954.7 782.055C957.689 782.989 960.084 785.451 964.023 787.37C967.522 789.068 972.803 789.968 975.113 788.932C975.558 788.667 975.941 788.307 976.234 787.879C976.528 787.451 976.724 786.965 976.811 786.453C977.439 784.534 977.388 784.092 977.151 784.025L934.322 765.989Z" fill="#37474F"/>
<path d="M978.798 779.779C978.494 781.74 977.844 783.632 976.879 785.366C976.204 785.874 975.434 786.243 974.615 786.45C973.795 786.657 972.943 786.698 972.107 786.572C968.511 786.314 965.048 785.107 962.071 783.073C959.797 781.594 957.343 780.413 954.768 779.558C951.226 778.704 947.747 777.603 944.358 776.264C941.83 775.196 939.477 773.753 937.379 771.984C935.68 770.388 934.101 768.588 934.271 766.346C934.652 764.935 935.461 763.676 936.586 762.743C937.711 761.809 939.097 761.247 940.554 761.133C943.344 760.991 946.133 761.413 948.757 762.372C951.305 763.235 953.943 763.804 956.619 764.07C958.453 764.223 960.61 765.769 962.037 764.155C963.735 762.287 964.397 757.872 965.535 755.664C965.722 755.308 965.977 754.917 966.367 754.832C966.758 754.747 967.403 755.223 967.76 755.698C969.422 757.773 971.552 759.426 973.975 760.521C980.53 763.765 983.57 762.05 983.57 762.05L984.181 760.691C984.181 760.691 985.489 761.421 983.825 764.478C982.421 766.991 981.239 769.622 980.292 772.341C979.466 774.743 978.964 777.244 978.798 779.779Z" fill="#455A64"/>
<path d="M934.322 766.346C936.377 758.738 945.004 760.776 950.574 762.695C952.547 763.39 954.592 763.863 956.67 764.104C954.57 764.01 952.492 763.639 950.489 763.001C944.987 761.302 936.716 759.129 934.322 766.397V766.346Z" fill="white"/>
<path d="M949.979 762.712C947.177 762.967 946.413 767.501 946.413 767.501C948.923 768.849 951.656 769.735 954.48 770.116C956.443 770.456 958.463 770.051 960.144 768.98C961.824 767.909 963.044 766.249 963.565 764.325C964.754 760.538 963.667 755.24 963.446 753.525C963.317 752.935 963.423 752.319 963.739 751.806C964.056 751.293 964.56 750.922 965.144 750.773C964.664 750.818 964.197 750.962 963.774 751.195C963.352 751.428 962.981 751.745 962.686 752.127C962.392 752.51 962.179 752.949 962.061 753.417C961.944 753.885 961.924 754.373 962.003 754.849C962.088 756.887 962.003 760.912 961.137 762.253C960.271 763.595 955.94 764.189 949.979 762.712Z" fill="#455A64"/>
<path d="M1020.18 624.851C1024.26 629.671 1026.65 635.696 1026.98 642.003C1027.26 648.129 1025.33 654.153 1021.56 658.985C1020.15 679.635 1016.07 719.39 1016.07 719.39C1021.53 724.995 1022.87 728.629 1026.09 738.682C1028.01 744.796 1035.21 764.444 1037 769.912C1027.45 771.084 1022.26 780.577 1022.26 780.577C1022.26 780.577 1005.44 755.749 997.36 741.145C991.365 730.344 988.597 726.404 986.814 720.019C984.606 712.054 984.012 707.945 982.042 694.546C980.072 681.147 978.187 664.097 977.219 650.884C976.251 637.672 975.521 623.713 975.521 623.713L1020.18 624.851Z" fill="#263238"/>
<path d="M1022.32 780.526C1012.52 766.091 1002.91 751.487 994.489 736.203C991.719 731.746 989.338 727.058 987.374 722.192C985.802 717.193 984.599 712.084 983.774 706.909C979.439 679.318 976.695 651.5 975.554 623.594L976.981 644.482C978.271 665.387 980.87 686.19 984.198 706.841C985.404 713.633 986.661 720.647 989.751 726.896C999.664 745.341 1010.54 763.253 1022.32 780.56V780.526Z" fill="white"/>
<path d="M998.565 725.827C993.623 713.226 987.696 644.635 988.002 620.928H986.762C986.661 628.859 987.255 641.782 988.274 655.962C984.249 653.924 981.651 650.188 981.651 631.406H980.411C980.411 650.29 982.873 654.858 988.376 657.389C990.448 685.477 994.15 717.964 997.41 726.302C1002.25 738.631 1027.5 780.288 1027.74 780.645L1028.81 780C1028.56 779.626 1003.37 738.071 998.565 725.827Z" fill="black"/>
<path d="M1020.93 778.42C1019.42 780.56 1017.7 782.072 1022 784.925C1025.4 787.115 1025.52 788.881 1026.55 791.225C1027.23 793.51 1027.5 795.894 1027.37 798.273C1027.37 798.273 1033.07 789.663 1031.41 784.109C1029.74 778.556 1020.93 778.42 1020.93 778.42Z" fill="#455A64"/>
<path d="M1039.22 773.496C1040.83 775.191 1042.72 776.593 1044.81 777.639C1046.25 778.539 1047.75 779.337 1048.2 781.036C1048.2 781.222 1047.35 782.241 1047.37 782.428C1047.45 783.238 1047.42 784.054 1047.29 784.857C1046.96 787.659 1045.44 789.731 1045.1 792.516C1044.99 793.628 1044.79 794.729 1044.5 795.81C1044.26 797.126 1044.15 798.463 1044.18 799.801C1044.09 801.193 1043.99 802.586 1043.92 803.979C1043.85 804.57 1043.85 805.17 1043.92 805.762C1044.04 806.356 1034.57 811.128 1030.75 812.962C1030.52 813.071 1030.29 813.168 1030.05 813.251C1027.72 813.885 1025.24 813.643 1023.07 812.572C1015.46 809.803 1015.94 807.052 1015.94 807.052C1015.98 805.913 1016.34 804.808 1016.98 803.864C1017.62 802.921 1018.51 802.177 1019.56 801.72C1020.02 801.45 1020.51 801.228 1021.02 801.058C1022.91 800.355 1024.97 800.254 1026.93 800.769C1027.31 799.638 1027.49 798.447 1027.45 797.254C1027.61 795.469 1027.64 793.676 1027.54 791.887C1027.2 789.866 1026.42 787.946 1025.24 786.266C1023.63 784.041 1021.85 781.172 1020.78 779.609C1019.71 778.047 1019.42 774.277 1025.75 769.743C1031.83 765.412 1036.28 766.346 1037.15 768.129C1037.63 769.992 1038.33 771.792 1039.22 773.496Z" fill="#455A64"/>
<path d="M1015.84 807.069C1015.84 801.822 1022.53 799.19 1026.89 800.735C1022.43 799.903 1016.48 801.975 1015.84 807.069Z" fill="white"/>
<path opacity="0.1" d="M1022.87 803.486C1023.37 802.191 1024.33 801.123 1025.57 800.48C1026.01 800.532 1026.46 800.617 1026.89 800.735C1026.13 801.465 1023.39 802.552 1022.87 803.486Z" fill="black"/>
<path d="M1049.09 782.683C1050.79 783.396 1049.38 786.079 1047.39 790.24C1045.59 793.315 1044.88 796.901 1045.35 800.429C1045.76 804.114 1044.89 805.915 1043.3 807.222C1041.7 808.53 1029.85 813.709 1029.85 813.709C1032.66 810.15 1034.3 805.797 1034.52 801.261C1035.16 793.144 1035.94 787.93 1039.98 784.381C1041.24 783.364 1042.73 782.676 1044.32 782.38C1045.91 782.083 1047.55 782.188 1049.09 782.683Z" fill="black"/>
<path d="M1015.84 807.052C1016.02 808.649 1020.56 811.875 1025.91 811.807C1031.26 811.739 1031.71 810.602 1032.55 804.335C1033.38 798.069 1033.96 789.357 1036.67 785.655C1039.39 781.953 1042.96 779.711 1048.17 781.07C1048.76 781.358 1050.38 782.972 1049.78 784.466C1049.78 784.466 1049.78 783.277 1047.64 782.649C1045.81 782.123 1043.62 782.173 1040.56 784.823C1036.98 787.896 1036.18 795.148 1035.77 801.363C1035.37 807.579 1033.43 813.539 1028.28 814.1C1026.06 814.401 1023.8 814.213 1021.66 813.55C1019.52 812.887 1017.55 811.765 1015.89 810.262C1015.57 809.219 1015.55 808.105 1015.84 807.052Z" fill="#37474F"/>
<path d="M985.167 510.544C984.474 509.568 984.046 508.429 983.927 507.238C983.808 506.046 984.001 504.845 984.487 503.751C985.353 501.543 987.154 499.217 992.401 496.5C998.65 493.273 1015.8 490.964 1024.29 502.189C1025.52 503.887 1008.64 535.559 1009.47 542.131C1005.09 537.529 990.635 521.345 990.635 521.345C987.238 519.884 985.133 518.644 984.402 515.418C984.138 513.753 984.406 512.048 985.167 510.544Z" fill="#263238"/>
<path d="M990.635 521.26C985.54 519.918 982.297 515.452 985.167 510.493C982.993 515.588 985.897 519.29 990.635 521.26Z" fill="white"/>
<path d="M985.166 510.544C983.026 508.2 983.553 504.43 985.166 501.917C987.04 499.479 989.54 497.594 992.401 496.466C991.096 497.217 989.837 498.045 988.631 498.945C985.081 501.408 982.432 506.587 985.234 510.544H985.166Z" fill="white"/>
<path d="M987.748 519.562C987.748 519.562 983.111 527.119 983.638 527.747C984.704 528.595 985.84 529.35 987.034 530.006L987.748 519.562Z" fill="#F0997A"/>
<path d="M987.747 519.562C986.593 521.99 985.2 524.283 984.062 526.694C983.91 527.085 983.587 527.543 983.808 527.815C984.099 528.151 984.443 528.438 984.827 528.664C984.368 528.409 983.604 528.205 983.502 527.594C984.437 524.689 985.874 521.97 987.747 519.562Z" fill="white"/>
<path d="M993.488 505.738C990.38 507.216 987.697 509.593 986.695 516.403C986.44 518.186 987.833 520.614 987.205 522.975C984.504 533.164 987.714 541.655 989.684 543.438C991.008 544.695 997.971 545.256 1001.57 544.237C1006.14 542.963 1016.07 538.48 1020.81 531.33C1026.38 522.839 1027.61 511.631 1021.47 507.097C1012.83 500.711 996.799 504.176 993.488 505.738Z" fill="#FFBDA7"/>
<path d="M986.729 516.403C986.729 518.712 988.087 520.971 987.306 523.332C985.863 529.904 985.761 537.715 989.718 543.438C985.37 537.902 985.37 529.853 987.034 523.264C987.816 521.022 986.525 518.729 986.729 516.471V516.403Z" fill="white"/>
<path d="M1017.25 536.136L1019.05 548.652C1021.85 549.246 1022.1 552.558 1020.74 555.054L1021.41 558.587L1002.25 562.017L1000.11 544.508L1017.25 536.136Z" fill="#FFBDA7"/>
<path d="M990.091 543.693C991.79 544.593 995.271 545.255 1000.13 544.576L999.839 542.097C998.298 542.675 996.714 543.129 995.101 543.455C993.452 543.782 991.764 543.862 990.091 543.693Z" fill="#F0997A"/>
<path d="M988.902 509.372C988.773 510.842 989.158 512.31 989.991 513.527C990.824 514.745 992.054 515.635 993.471 516.046C992.714 517.673 992.432 519.48 992.655 521.26C992.719 522.311 993.082 523.322 993.702 524.174C994.322 525.025 995.173 525.682 996.154 526.066C997.495 526.524 997.852 525.93 998.378 524.86C999.058 523.349 999.924 521.039 1003.17 521.464C1006.89 521.973 1007.87 527.577 1005.7 531.245C1005.28 532.021 1004.68 532.683 1003.95 533.174C1003.22 533.665 1002.38 533.971 1001.5 534.064C1001.02 534.057 1000.55 533.947 1000.11 533.742C999.674 533.537 999.286 533.242 998.973 532.876C998.973 532.876 999.211 537.766 1005.51 540.67C1009.45 542.766 1014.02 543.369 1018.37 542.369C1021.3 539.115 1024.06 535.715 1026.64 532.179C1033.43 522.262 1034.87 504.108 1023.24 500.847C1022.68 500.694 1012.1 499.149 1006.94 500.338C991.025 503.734 988.936 508.608 988.902 509.372Z" fill="#263238"/>
<path d="M1017.62 499.574C1016.21 500.587 1015.25 502.1 1014.92 503.802C1014.77 504.651 1014.85 505.523 1015.15 506.331C1015.45 507.138 1015.96 507.854 1016.62 508.404C1020.01 511.07 1025.31 507.963 1025.94 504.023C1026.65 499.37 1021.05 497.026 1017.62 499.574Z" fill="#1A2A19"/>
<path d="M1020.39 501.051C1016.91 503.191 1014.73 508.234 1016.58 511.869C1017.09 512.854 1017.81 513.737 1018.28 514.773C1019.62 518.084 1017.67 521.735 1017.25 525.285C1016.96 528.102 1017.44 530.945 1018.66 533.504C1019.81 535.389 1022.36 535.864 1023.38 537.834C1024.07 539.193 1023.6 540.857 1023.87 542.369C1024.46 545.612 1028.3 547.175 1031.61 547.242C1033.01 547.366 1034.42 547.181 1035.74 546.7C1037.06 546.219 1038.26 545.453 1039.25 544.457C1040.01 543.278 1040.84 542.144 1041.73 541.061C1043.7 539.21 1046.83 539.363 1049 537.665C1049.81 536.955 1050.44 536.069 1050.84 535.077C1051.25 534.084 1051.42 533.011 1051.35 531.942C1051.15 529.798 1050.57 527.705 1049.65 525.76C1048.24 522.364 1049.36 520.173 1050.07 516.726C1050.41 514.864 1050.1 512.943 1049.2 511.28C1048.3 509.617 1046.86 508.309 1045.11 507.572C1042.72 506.621 1039.8 506.774 1037.86 505.059C1036.94 503.972 1036.08 502.838 1035.28 501.662C1031.65 497.672 1024.48 498.555 1020.39 501.051Z" fill="#263238"/>
<path d="M1034.06 558.892C1033.29 556.816 1032.09 554.933 1030.52 553.375C1028.95 551.817 1027.05 550.622 1024.97 549.875C1023.27 549.365 1019.05 548.652 1019.05 548.652C1020.01 550.86 1018.38 552.32 1015.51 552.982C1011.83 553.848 1006.21 553.933 1002.39 551.403L1000.82 550.435C996.654 551.46 992.539 552.696 988.495 554.137C987.663 554.528 983.061 556.073 975.826 572.325C972.735 579.271 973.652 586.318 979.341 591.328C979.664 595.726 976.828 605.627 976.828 605.627C975.386 613.89 975.055 622.308 975.843 630.659C975.843 630.659 979.24 639.659 1006.17 639.557C1027.01 639.557 1037.49 629.368 1037.49 629.368C1037.23 624.273 1029.22 606.391 1030.02 600.38C1031.26 591.617 1039.29 575.908 1034.06 558.892Z" fill="#1A2A19"/>
<path d="M988.495 554.137C993.98 558.603 994.405 564.734 993.59 573.004C992.774 581.275 984.47 607.121 982.772 612.742C981.074 618.364 978.645 620.317 974.366 624.868C970.086 629.419 960.084 636.653 955.108 640.797C952.798 642.716 950.744 644.72 948.553 646.809C946.16 648.827 943.629 650.677 940.979 652.345C939.74 653.192 938.298 653.696 936.801 653.805C935.85 653.805 935.018 653.364 934.118 653.432C933.218 653.5 932.42 654.213 931.435 654.043C930.45 653.873 929.465 652.871 928.395 652.752C927.261 652.768 926.127 652.717 924.999 652.6C924.104 652.268 923.14 652.169 922.197 652.311C921.314 652.481 919.972 653.347 919.14 652.617C918.308 651.886 918.766 650.715 919.31 649.848C920.511 648.228 922.202 647.037 924.133 646.452C926.044 645.662 928 644.987 929.991 644.431C931.865 643.928 933.605 643.018 935.086 641.765C936.139 640.967 936.988 639.574 935.239 639.218C933.167 638.793 930.433 639.082 928.786 637.401C927.665 636.246 928.327 635.176 929.703 634.87C931.964 634.371 934.183 633.701 936.343 632.866C938.55 632.017 940.639 630.947 942.864 630.166C944.05 629.783 945.258 629.471 946.481 629.232C949.878 628.536 951.83 625.666 953.936 623.204C956.891 619.807 961.969 613.32 965.416 608.667L970.63 583.448C973.924 569.761 975.079 558.281 988.495 554.137Z" fill="#FFBDA7"/>
<path d="M993.556 573.004C992.231 580.476 990.41 587.851 988.104 595.081C987.935 595.676 987.748 596.253 987.578 596.779C985.489 603.861 983.468 610.246 982.721 612.726C981.193 617.82 979.036 619.926 975.453 623.662L974.315 624.851C969.849 629.589 960.033 636.637 955.057 640.797C952.765 642.716 950.693 644.703 948.519 646.792C946.12 648.816 943.584 650.672 940.928 652.345C939.687 653.187 938.246 653.685 936.75 653.789C935.799 653.873 934.967 653.347 934.067 653.415C933.167 653.483 932.369 654.196 931.384 654.026C930.399 653.856 929.414 652.854 928.344 652.753C927.21 652.763 926.076 652.706 924.948 652.583C924.051 652.259 923.089 652.16 922.146 652.294C921.874 652.294 921.551 652.481 921.212 652.6L920.787 652.736C920.596 652.807 920.396 652.852 920.193 652.871C920.003 652.91 919.807 652.905 919.619 652.858C919.431 652.811 919.256 652.723 919.106 652.6C918.172 651.785 918.715 650.715 919.259 649.849C920.459 648.227 922.15 647.036 924.082 646.452C925.992 645.657 927.949 644.976 929.941 644.414C931.814 643.911 933.554 643.001 935.035 641.748C936.088 640.95 936.937 639.574 935.188 639.201C933.116 638.776 930.382 639.065 928.752 637.401C927.614 636.229 928.276 635.159 929.652 634.853C931.913 634.356 934.133 633.686 936.292 632.849C938.5 632 940.605 630.931 942.813 630.166C943.996 629.772 945.204 629.46 946.43 629.232C949.827 628.536 951.78 625.649 953.885 623.204C956.84 619.807 961.918 613.303 965.382 608.65L970.579 583.431C973.873 569.676 975.079 558.196 988.444 554.069C989.824 555.187 990.977 556.559 991.84 558.111C994.116 562.119 994.167 566.993 993.556 573.004Z" fill="#FFBDA7"/>
<path d="M919.038 652.617C918.721 652.296 918.533 651.87 918.508 651.42C918.483 650.969 918.623 650.526 918.902 650.171C920.176 647.709 922.944 646.656 925.389 645.824C927.015 645.06 928.725 644.49 930.484 644.126C932.153 643.61 933.721 642.811 935.12 641.765C933.796 642.953 932.249 643.865 930.569 644.448C927.177 645.28 923.919 646.584 920.889 648.32C919.768 649.22 917.815 651.105 919.106 652.549L919.038 652.617Z" fill="white"/>
<path d="M928.786 637.469C926.68 635.057 930.756 634.751 932.284 634.242C936.326 633.206 939.892 630.981 943.866 629.861C945.903 629.549 947.853 628.814 949.589 627.704C952.357 625.513 955.329 621.115 957.622 618.347L965.264 608.616C966.962 600.125 969.662 586.896 971.683 578.269C973.84 568.079 977.151 557.194 988.495 554.137C977.321 557.313 974.06 568.13 971.988 578.337C969.951 587.099 967.505 599.921 965.586 608.905L957.876 618.618C955.516 621.403 952.612 625.717 949.742 627.975C947.982 629.089 946.01 629.824 943.951 630.132C939.977 631.236 936.36 633.41 932.318 634.378C930.773 634.87 926.731 635.091 928.786 637.519V637.469Z" fill="white"/>
<path opacity="0.3" d="M1026.89 664.606C1026.89 665.265 1027.07 665.912 1027.42 666.474C1027.77 666.033 1028.08 665.489 1028.39 665.149C1029.07 664.489 1029.9 664.005 1030.81 663.74C1031.8 663.171 1032.76 662.547 1033.68 661.872C1034.6 661.328 1035.82 661.651 1036.89 661.125C1037.96 660.598 1038 659.664 1038.71 659.053C1039.42 658.442 1040.41 658.408 1041.09 657.779C1042.24 656.817 1043.12 655.562 1043.62 654.145C1044.79 651.239 1045.75 648.254 1046.51 645.212C1047.05 642.241 1047.54 639.405 1048.29 636.501C1049.89 630.217 1053.69 618.754 1054.52 612.301C1055.32 606.119 1054.74 604.082 1052.82 598.545C1050.9 593.009 1043.82 566.279 1039.66 559.028C1035.72 552.235 1032.44 551.318 1024.7 549.79L1024.24 549.671L1023.46 549.501L1022.85 549.365L1022.07 549.212L1021.61 549.127L1020.49 548.907L1019.64 548.754H1019.42H1019.06L1018.16 542.487H1018.38C1019.76 540.789 1021.27 539.176 1022.85 537.274C1023.04 537.497 1023.21 537.742 1023.34 538.004C1024.06 539.363 1023.56 541.01 1023.83 542.521C1024.43 545.782 1028.27 547.327 1031.58 547.412C1032.98 547.529 1034.39 547.339 1035.71 546.855C1037.03 546.371 1038.23 545.605 1039.22 544.61C1039.99 543.435 1040.81 542.301 1041.7 541.214C1043.67 539.363 1046.79 539.516 1048.99 537.817C1049.79 537.103 1050.41 536.214 1050.82 535.219C1051.22 534.223 1051.39 533.148 1051.31 532.077C1051.12 529.932 1050.54 527.838 1049.61 525.896C1048.2 522.499 1049.32 520.309 1050.04 516.878C1050.37 515.016 1050.07 513.095 1049.17 511.429C1048.27 509.763 1046.84 508.451 1045.1 507.708C1042.68 506.757 1039.76 506.927 1037.83 505.195C1036.92 504.107 1036.06 502.974 1035.26 501.798C1032.55 498.826 1027.88 498.572 1023.97 499.658C1023.01 498.989 1021.85 498.65 1020.68 498.69C1015.38 494.581 1008.47 493.596 1002.54 494.071C1000.31 495.008 998.292 496.389 996.612 498.13C991.28 503.412 988.121 511.172 989.514 518.509C989.785 519.884 990.21 521.209 990.431 522.584C990.991 526.1 990.21 529.683 990.227 533.249C990.244 536.815 991.365 540.755 994.455 542.504C996.799 543.812 999.669 543.557 1002.34 543.897C1006.72 544.457 1006.21 547.158 1006.38 550.877C1006.45 551.446 1006.4 552.024 1006.24 552.575C1006.17 552.773 1006.07 552.958 1005.94 553.118C1004.8 554.528 1001.57 555.088 1000.14 555.564C997.317 556.249 994.555 557.18 991.891 558.349C990.668 558.97 989.609 559.872 988.8 560.981C985.557 565.532 984.181 570.95 982.806 576.265C981.532 581.19 980.19 586.115 978.781 591.005C977.513 595.443 976.188 599.859 974.807 604.251C973.732 608.249 972.121 612.082 970.018 615.646C967.386 619.671 963.616 622.796 960.219 626.226C952.527 634.004 946.09 643.956 935.799 647.692C931.842 649.118 927.597 649.509 923.538 650.596C922.129 650.969 920.532 651.717 920.142 653.024C920.345 653.005 920.545 652.96 920.736 652.888L921.161 652.752C921.5 652.634 921.823 652.515 922.095 652.447C923.038 652.312 924 652.412 924.897 652.736C926.024 652.859 927.159 652.915 928.293 652.905C929.363 653.007 930.161 653.992 931.333 654.179C932.505 654.366 933.031 653.636 934.016 653.568C935.001 653.5 935.714 654.026 936.699 653.941C938.195 653.837 939.636 653.339 940.877 652.498C943.532 650.824 946.069 648.969 948.468 646.945C950.642 644.856 952.713 642.869 955.006 640.95C959.982 636.789 969.797 629.742 974.264 625.004L975.402 623.815C978.968 620.096 981.124 618.007 982.653 612.895C983.4 610.416 985.421 604.031 987.51 596.949L988.036 595.251C988.82 596.206 989.231 597.413 989.191 598.647C989.819 606.901 991.789 615.256 993.131 623.475C994.082 629.334 995.05 635.193 995.491 641.103C995.831 645.382 995.882 649.594 995.95 653.941L996.357 684.509C996.357 686.207 996.357 687.906 996.442 689.706C996.464 694.516 996.793 699.321 997.427 704.09C997.981 708.293 998.896 712.44 1000.16 716.486C1000.47 717.471 1000.79 718.456 1001.15 719.441C1004.66 729.206 1010.18 738.122 1015.5 746.918C1020.89 756.318 1025.73 766.026 1029.98 775.992C1030.85 777.735 1031.49 779.585 1031.88 781.494C1032.43 784.789 1031.53 788.134 1031.27 791.463C1031.02 794.791 1031.39 797.984 1031.27 801.244C1031.35 804.526 1030.4 807.748 1028.56 810.466C1027.23 812.176 1025.39 813.42 1023.31 814.015C1024.94 814.299 1026.6 814.35 1028.25 814.168C1029.2 814.08 1030.11 813.766 1030.92 813.251C1035.12 811.478 1039.22 809.483 1043.21 807.273C1044.81 805.999 1045.67 804.182 1045.28 800.48C1044.79 796.953 1045.5 793.364 1047.3 790.291C1048.39 788.424 1049.23 786.419 1049.78 784.33C1050.21 782.887 1048.71 781.392 1048.09 781.104C1047.66 779.405 1046.17 778.59 1044.69 777.707C1042.6 776.661 1040.72 775.259 1039.12 773.563C1038.2 771.854 1037.49 770.041 1037 768.163C1036.78 767.75 1036.44 767.413 1036.03 767.195C1033.41 759.672 1027.72 744.031 1026.04 738.716C1022.88 728.646 1021.47 725.012 1016.02 719.407C1016.02 719.407 1019.03 690.062 1020.78 668.716L1022.88 665.031C1023.1 664.64 1023.33 664.266 1023.56 663.893C1025.92 660.049 1028.68 656.463 1031.78 653.194C1032.09 652.871 1032.39 652.498 1032.7 652.141C1032.24 652.905 1031.8 653.67 1031.29 654.417C1029.27 657.508 1026.74 660.819 1026.89 664.606ZM1037.28 629.589L1037.49 629.402C1037.39 628.297 1037.18 627.205 1036.86 626.141C1036.47 624.698 1035.93 622.983 1035.33 621.132C1035.14 620.554 1034.94 619.96 1034.74 619.434C1034.04 617.362 1033.29 615.154 1032.61 613.014C1032.39 612.352 1032.19 611.69 1032 611.044C1031.82 610.399 1031.56 609.618 1031.37 608.939C1031.19 608.259 1031.1 607.971 1030.98 607.495C1030.98 607.342 1030.9 607.172 1030.87 607.02C1030.83 606.867 1030.71 606.391 1030.64 606.103C1030.51 605.542 1030.39 605.016 1030.3 604.506L1030.2 603.946C1030.19 603.816 1030.19 603.685 1030.2 603.555C1030.15 603.308 1030.12 603.059 1030.1 602.808V602.299C1030.08 601.993 1030.08 601.687 1030.1 601.381C1030.08 601.087 1030.08 600.793 1030.1 600.498C1030.56 597.862 1031.19 595.258 1031.99 592.704C1032.53 590.734 1033.14 588.628 1033.68 586.386C1035.3 589.392 1036.86 592.398 1038.42 595.421C1039.76 597.811 1040.9 600.31 1041.82 602.893C1043.69 608.769 1043.23 615.137 1042.51 621.268C1041.77 628.261 1040.22 635.144 1037.9 641.782C1038.39 637.713 1038.19 633.588 1037.28 629.589Z" fill="black"/>
</g>
</g>
<defs>
<clipPath id="clip0_1_289">
<rect width="1728" height="1117" fill="white"/>
</clipPath>
</defs>
</svg>
